<svg width="893" height="156" viewBox="0 0 893 156" fill="none" xmlns="http://www.w3.org/2000/svg">
<path d="M24 37.75H72V54.7H42.9V106.45H72V124H24V37.75ZM127.35 48.1L110.4 37.75H79.35V54.7H108.45V106.45H79.35V124H110.4L127.35 113.8V48.1ZM142.143 48.1V124H161.043V89.5H190.143V72.4H161.043V54.7H190.143V37.75H159.243L142.143 48.1ZM245.493 48.1V124H226.593V89.5H196.893V72.4H226.593V54.7H196.893V37.75H227.793L245.493 48.1ZM272.438 37.75H320.438V54.7H291.338V72.4H320.438V89.5H291.338V106.45H320.438V124H272.438V37.75ZM375.788 113.8V87.55L361.688 80.95L375.788 74.2V48.1L358.838 37.75H327.788V54.7H356.888V72.4H327.788V89.5H356.888V106.45H327.788V124H358.838L375.788 113.8ZM399.809 48.1L417.359 37.75H448.409V54.7H418.709V106.45H447.809V124H417.359L399.809 113.8V48.1ZM503.159 48.1L486.209 37.75H455.159V54.7H484.259V106.45H455.159V124H486.209L503.159 113.8V48.1ZM574.041 84.55V124H557.091V84.55L513.891 43.3L530.991 37.75L565.491 70.6L600.291 37.75L617.241 43.3L574.041 84.55ZM636.744 37.75H684.744V55.45H655.644V72.4H684.744V89.5H655.644V107.05H684.144V124H636.744V37.75ZM692.094 107.05V124H740.094V107.05H692.094ZM740.094 55.45V37.75H691.494V55.45H740.094ZM715.794 89.5V72.4H691.494V89.5H715.794ZM756.645 48.1L774.195 37.75H805.245V54.7H775.545V106.45H804.645V124H774.195L756.645 113.8V48.1ZM859.995 48.1L843.045 37.75H811.995V54.7H841.095V106.45H811.995V124H843.045L859.995 113.8V48.1Z" fill="#00B4B4"/>
<path d="M29 37.75H77V54.7H47.9V106.45H77V124H29V37.75ZM132.35 48.1L115.4 37.75H84.35V54.7H113.45V106.45H84.35V124H115.4L132.35 113.8V48.1ZM147.143 48.1V124H166.043V89.5H195.143V72.4H166.043V54.7H195.143V37.75H164.243L147.143 48.1ZM250.493 48.1V124H231.593V89.5H201.893V72.4H231.593V54.7H201.893V37.75H232.793L250.493 48.1ZM277.438 37.75H325.438V54.7H296.338V72.4H325.438V89.5H296.338V106.45H325.438V124H277.438V37.75ZM380.788 113.8V87.55L366.688 80.95L380.788 74.2V48.1L363.838 37.75H332.788V54.7H361.888V72.4H332.788V89.5H361.888V106.45H332.788V124H363.838L380.788 113.8ZM404.809 48.1L422.359 37.75H453.409V54.7H423.709V106.45H452.809V124H422.359L404.809 113.8V48.1ZM508.159 48.1L491.209 37.75H460.159V54.7H489.259V106.45H460.159V124H491.209L508.159 113.8V48.1ZM579.041 84.55V124H562.091V84.55L518.891 43.3L535.991 37.75L570.491 70.6L605.291 37.75L622.241 43.3L579.041 84.55ZM641.744 37.75H689.744V55.45H660.644V72.4H689.744V89.5H660.644V107.05H689.144V124H641.744V37.75ZM697.094 107.05V124H745.094V107.05H697.094ZM745.094 55.45V37.75H696.494V55.45H745.094ZM720.794 89.5V72.4H696.494V89.5H720.794ZM761.645 48.1L779.195 37.75H810.245V54.7H780.545V106.45H809.645V124H779.195L761.645 113.8V48.1ZM864.995 48.1L848.045 37.75H816.995V54.7H846.095V106.45H816.995V124H848.045L864.995 113.8V48.1Z" fill="#B4009C" fill-opacity="0.5"/>
<circle cx="877" cy="124" r="8" fill="#B4009C" fill-opacity="0.5"/>
</svg>
